mtllib radar.mtl
o Base
v -0.500000 -0.000000 0.500000
v -0.500000 0.125000 0.500000
v -0.500000 0.000000 -0.500000
v -0.500000 0.125000 -0.500000
v 0.500000 -0.000000 0.500000
v 0.500000 0.125000 0.500000
v 0.500000 0.000000 -0.500000
v 0.500000 0.125000 -0.500000
v -0.500000 0.312500 0.187500
v -0.500000 0.687500 0.187500
v -0.500000 0.312500 -0.187500
v -0.500000 0.687500 -0.187500
v 0.500000 0.312500 0.187500
v 0.500000 0.687500 0.187500
v 0.500000 0.312500 -0.187500
v 0.500000 0.687500 -0.187500
v 0.187500 0.312500 0.500000
v 0.187500 0.687500 0.500000
v -0.187500 0.312500 0.500000
v -0.187500 0.687500 0.500000
v 0.187500 0.312500 -0.500000
v 0.187500 0.687500 -0.500000
v -0.187500 0.312500 -0.500000
v -0.187500 0.687500 -0.500000
v -0.375000 0.312500 0.187500
v -0.375000 0.312500 -0.187500
v -0.375000 0.687500 -0.187500
v -0.375000 0.687500 0.187500
v 0.375000 0.312500 -0.187500
v 0.375000 0.312500 0.187500
v 0.375000 0.687500 0.187500
v 0.375000 0.687500 -0.187500
v 0.187500 0.312500 0.375000
v -0.187500 0.312500 0.375000
v -0.187500 0.687500 0.375000
v 0.187500 0.687500 0.375000
v -0.187500 0.312500 -0.375000
v 0.187500 0.312500 -0.375000
v 0.187500 0.687500 -0.375000
v -0.187500 0.687500 -0.375000
v -0.312500 1.000000 0.312500
v -0.312500 1.000000 -0.312500
v 0.312500 1.000000 0.312500
v 0.312500 1.000000 -0.312500
v 0.437500 1.000000 -0.437500
v 0.437500 1.000000 0.437500
v -0.437500 1.000000 -0.437500
v -0.437500 1.000000 0.437500
v 0.437500 0.125000 0.437500
v 0.437500 0.125000 0.312500
v 0.312500 0.125000 0.437500
v 0.437500 0.875000 0.437500
v 0.437500 0.875000 0.312500
v 0.312500 0.875000 0.437500
v 0.437500 0.125000 -0.312500
v 0.437500 0.125000 -0.437500
v 0.312500 0.125000 -0.437500
v 0.437500 0.875000 -0.312500
v 0.437500 0.875000 -0.437500
v 0.312500 0.875000 -0.437500
v -0.312500 0.125000 0.437500
v -0.437500 0.125000 0.437500
v -0.437500 0.125000 0.312500
v -0.312500 0.875000 0.437500
v -0.437500 0.875000 0.437500
v -0.437500 0.875000 0.312500
v -0.312500 0.125000 -0.437500
v -0.437500 0.125000 -0.312500
v -0.437500 0.125000 -0.437500
v -0.312500 0.875000 -0.437500
v -0.437500 0.875000 -0.312500
v -0.437500 0.875000 -0.437500
v 0.312500 0.125000 0.375000
v -0.312500 0.125000 0.375000
v 0.312500 0.875000 0.375000
v -0.312500 0.875000 0.375000
v 0.312500 0.125000 -0.375000
v 0.312500 0.875000 -0.375000
v -0.312500 0.125000 -0.375000
v -0.312500 0.875000 -0.375000
v 0.375000 0.125000 0.312500
v 0.375000 0.875000 0.312500
v 0.375000 0.125000 -0.312500
v 0.375000 0.875000 -0.312500
v -0.375000 0.125000 0.312500
v -0.375000 0.875000 0.312500
v -0.375000 0.125000 -0.312500
v -0.375000 0.875000 -0.312500
v 0.312500 1.062500 0.312500
v -0.312500 1.062500 0.312500
v 0.312500 1.062500 -0.312500
v -0.312500 1.062500 -0.312500
v -0.156250 1.062500 0.156250
v -0.156250 1.062500 -0.156250
v 0.156250 1.062500 0.156250
v 0.156250 1.062500 -0.156250
v -0.156250 1.125000 0.156250
v -0.156250 1.125000 -0.156250
v 0.156250 1.125000 -0.156250
v 0.156250 1.125000 0.156250
vn -1.0000 -0.0000 -0.0000
vn -0.0000 -0.0000 -1.0000
vn 1.0000 -0.0000 -0.0000
vn -0.0000 -0.0000 1.0000
vn -0.0000 -1.0000 -0.0000
vn -0.0000 1.0000 -0.0000
vt -0.000000 0.428571
vt -0.000000 0.380952
vt 0.000000 0.000000
vt -0.000000 0.380952
vt -0.000000 0.428571
vt 0.000000 0.809524
vt -0.000000 0.428571
vt 0.400000 -0.000000
vt 0.400000 0.428571
vt 0.400000 0.380952
vt -0.000000 0.380952
vt 0.400000 0.809524
vt 0.400000 0.380952
vt -0.000000 0.380952
vt 0.400000 0.428571
vt -0.000000 0.428571
vt 0.400000 0.428571
vt 0.400000 0.380952
vt 0.400000 0.380952
vt 0.400000 0.428571
vt 0.275000 0.547619
vt 0.275000 0.690476
vt 0.125000 0.547619
vt 0.125000 0.690476
vt 0.125000 0.547619
vt 0.125000 0.690476
vt 0.275000 0.547619
vt 0.275000 0.690476
vt 0.275000 0.547619
vt 0.275000 0.690476
vt 0.125000 0.547619
vt 0.125000 0.690476
vt 0.125000 0.547619
vt 0.125000 0.690476
vt 0.275000 0.547619
vt 0.275000 0.690476
vt 0.275000 0.500000
vt 0.325000 0.547619
vt 0.125000 0.500000
vt 0.075000 0.547619
vt 0.075000 0.690476
vt 0.125000 0.738095
vt 0.275000 0.738095
vt 0.325000 0.690476
vt 0.275000 0.500000
vt 0.325000 0.547619
vt 0.125000 0.500000
vt 0.075000 0.547619
vt 0.075000 0.690476
vt 0.125000 0.738095
vt 0.275000 0.738095
vt 0.325000 0.690476
vt 0.275000 0.500000
vt 0.325000 0.547619
vt 0.125000 0.500000
vt 0.075000 0.547619
vt 0.075000 0.690476
vt 0.125000 0.738095
vt 0.275000 0.738095
vt 0.325000 0.690476
vt 0.275000 0.500000
vt 0.325000 0.547619
vt 0.125000 0.500000
vt 0.075000 0.547619
vt 0.075000 0.690476
vt 0.125000 0.738095
vt 0.275000 0.738095
vt 0.325000 0.690476
vt 0.400000 0.452381
vt 0.400000 0.428571
vt 0.400000 0.452381
vt 0.650000 0.452381
vt 0.650000 0.428571
vt 0.400000 0.428571
vt 0.650000 0.428571
vt 0.650000 0.452381
vt 0.750000 0.095238
vt 0.400000 0.095238
vt 0.400000 0.095238
vt 0.750000 0.095238
vt 0.750000 0.428571
vt 0.750000 0.095238
vt 0.400000 0.095238
vt 0.400000 0.428571
vt 0.750000 0.095238
vt 0.400000 0.095238
vt 0.475000 0.690476
vt 0.025000 0.452381
vt 0.525000 0.690476
vt 0.075000 0.452381
vt 0.425000 0.690476
vt 0.025000 0.500000
vt 0.750000 0.047619
vt 0.475000 0.976190
vt 0.400000 0.047619
vt 0.525000 0.976190
vt 0.450000 0.047619
vt 0.425000 0.976190
vt 0.700000 0.047619
vt 0.425000 0.690476
vt 0.325000 0.452381
vt 0.475000 0.690476
vt 0.375000 0.452381
vt 0.375000 0.500000
vt 0.525000 0.690476
vt 0.425000 0.976190
vt 0.700000 0.047619
vt 0.475000 0.976190
vt 0.750000 0.047619
vt 0.400000 0.047619
vt 0.525000 0.976190
vt 0.450000 0.047619
vt 0.525000 0.690476
vt 0.025000 0.738095
vt 0.475000 0.690476
vt 0.025000 0.785714
vt 0.425000 0.690476
vt 0.075000 0.785714
vt 0.525000 0.976190
vt 0.450000 0.047619
vt 0.750000 0.047619
vt 0.475000 0.976190
vt 0.400000 0.047619
vt 0.425000 0.976190
vt 0.700000 0.047619
vt 0.375000 0.738095
vt 0.425000 0.690476
vt 0.325000 0.785714
vt 0.525000 0.690476
vt 0.375000 0.785714
vt 0.475000 0.690476
vt 0.425000 0.976190
vt 0.700000 0.047619
vt 0.525000 0.976190
vt 0.450000 0.047619
vt 0.475000 0.976190
vt 0.750000 0.047619
vt 0.400000 0.047619
vt 1.000000 0.000000
vt 0.400000 0.690476
vt 0.050000 0.500000
vt 0.550000 0.690476
vt 0.050000 0.738095
vt 0.750000 0.000000
vt 0.700000 0.023810
vt 0.400000 0.976190
vt 1.000000 0.285714
vt 0.550000 0.976190
vt 0.450000 0.023810
vt 0.750000 0.285714
vt 0.750000 0.000000
vt 0.550000 0.690476
vt 0.350000 0.500000
vt 0.550000 0.976190
vt 0.450000 0.023810
vt 0.750000 0.285714
vt 0.400000 0.690476
vt 0.350000 0.738095
vt 1.000000 0.000000
vt 0.400000 0.976190
vt 1.000000 0.285714
vt 0.700000 0.023810
vt 0.550000 0.690476
vt 0.750000 0.000000
vt 0.075000 0.476190
vt 0.450000 0.023810
vt 0.550000 0.976190
vt 0.750000 0.285714
vt 0.400000 0.690476
vt 0.325000 0.476190
vt 1.000000 0.000000
vt 0.400000 0.976190
vt 0.700000 0.023810
vt 1.000000 0.285714
vt 0.400000 0.690476
vt 1.000000 0.000000
vt 0.075000 0.761905
vt 0.700000 0.023810
vt 0.400000 0.976190
vt 1.000000 0.285714
vt 0.550000 0.690476
vt 0.325000 0.761905
vt 0.750000 0.000000
vt 0.550000 0.976190
vt 0.750000 0.285714
vt 0.450000 0.023810
vt 0.400000 0.452381
vt 0.650000 0.452381
vt 0.400000 0.690476
vt 0.400000 0.428571
vt 0.400000 0.452381
vt 0.650000 0.428571
vt 0.650000 0.452381
vt 0.650000 0.690476
vt 0.650000 0.428571
vt 0.400000 0.428571
vt 0.750000 0.285714
vt 0.750000 0.309524
vt 0.875000 0.309524
vt 0.750000 0.309524
vt 0.750000 0.285714
vt 0.875000 0.285714
vt 0.875000 0.309524
vt 0.875000 0.285714
vt 0.750000 0.285714
vt 0.750000 0.309524
vt 0.875000 0.285714
vt 0.750000 0.285714
vt 0.875000 0.309524
vt 0.875000 0.285714
vt 0.750000 0.309524
vt 0.875000 0.309524
usemtl None
s off
f 2/4/1 3/9/1 1/1/1
f 4/11/2 7/17/2 3/7/2
f 8/20/3 5/14/3 7/18/3
f 6/15/4 1/2/4 5/13/4
f 7/18/5 1/3/5 3/8/5
f 54/99/5 76/149/5 75/145/5
f 24/36/2 21/33/2 23/35/2
f 9/21/1 12/24/1 11/23/1
f 17/29/4 20/32/4 19/31/4
f 16/28/3 13/25/3 15/27/3
f 26/39/5 9/21/5 11/23/5
f 27/41/2 11/23/2 12/24/2
f 28/43/6 12/24/6 10/22/6
f 25/38/4 10/22/4 9/21/4
f 30/47/5 15/27/5 13/25/5
f 31/49/4 13/25/4 14/26/4
f 32/51/6 14/26/6 16/28/6
f 29/46/2 16/28/2 15/27/2
f 34/55/5 17/29/5 19/31/5
f 35/57/1 19/31/1 20/32/1
f 36/59/6 20/32/6 18/30/6
f 33/54/3 18/30/3 17/29/3
f 38/63/5 23/35/5 21/33/5
f 39/65/3 21/33/3 22/34/3
f 40/67/6 22/34/6 24/36/6
f 37/62/1 24/36/1 23/35/1
f 55/100/4 84/172/4 83/169/4
f 63/117/2 86/179/2 85/175/2
f 60/111/1 77/152/1 78/154/1
f 82/167/2 50/89/2 81/163/2
f 73/140/1 54/98/1 75/146/1
f 47/81/6 46/79/6 45/77/6
f 64/119/3 74/142/3 76/148/3
f 49/87/4 54/98/4 51/91/4
f 67/126/6 57/104/6 8/20/6
f 67/127/3 80/160/3 79/157/3
f 50/89/3 52/94/3 49/87/3
f 84/173/5 53/97/5 82/166/5
f 57/105/2 59/108/2 56/102/2
f 56/102/3 58/106/3 55/100/3
f 2/6/6 63/118/6 68/128/6
f 61/113/4 65/122/4 62/115/4
f 62/115/1 66/124/1 63/117/1
f 6/16/6 51/92/6 61/114/6
f 88/184/4 68/129/4 87/181/4
f 68/129/1 72/136/1 69/131/1
f 69/131/2 70/132/2 67/127/2
f 55/101/6 50/90/6 6/16/6
f 75/147/4 74/144/4 73/139/4
f 79/159/2 78/156/2 77/151/2
f 83/171/3 82/168/3 81/164/3
f 86/180/1 87/183/1 85/176/1
f 66/125/5 88/186/5 86/178/5
f 80/162/5 60/112/5 78/155/5
f 46/79/3 53/97/3 58/107/3
f 45/78/2 60/112/2 70/133/2
f 66/125/1 65/121/1 48/85/1
f 54/99/4 52/93/4 46/80/4
f 89/187/6 92/194/6 90/189/6
f 90/190/1 42/72/1 41/69/1
f 92/196/2 44/76/2 42/71/2
f 91/193/3 43/74/3 44/75/3
f 89/188/4 41/70/4 43/73/4
f 96/204/3 100/211/3 95/201/3
f 93/198/1 98/207/1 94/199/1
f 95/202/4 97/206/4 93/197/4
f 94/200/2 99/210/2 96/203/2
f 2/4/1 4/10/1 3/9/1
f 4/11/2 8/19/2 7/17/2
f 8/20/3 6/16/3 5/14/3
f 6/15/4 2/5/4 1/2/4
f 7/18/5 5/14/5 1/3/5
f 54/99/5 64/120/5 76/149/5
f 24/36/2 22/34/2 21/33/2
f 9/21/1 10/22/1 12/24/1
f 17/29/4 18/30/4 20/32/4
f 16/28/3 14/26/3 13/25/3
f 26/39/5 25/37/5 9/21/5
f 27/41/2 26/40/2 11/23/2
f 28/43/6 27/42/6 12/24/6
f 25/38/4 28/44/4 10/22/4
f 30/47/5 29/45/5 15/27/5
f 31/49/4 30/48/4 13/25/4
f 32/51/6 31/50/6 14/26/6
f 29/46/2 32/52/2 16/28/2
f 34/55/5 33/53/5 17/29/5
f 35/57/1 34/56/1 19/31/1
f 36/59/6 35/58/6 20/32/6
f 33/54/3 36/60/3 18/30/3
f 38/63/5 37/61/5 23/35/5
f 39/65/3 38/64/3 21/33/3
f 40/67/6 39/66/6 22/34/6
f 37/62/1 40/68/1 24/36/1
f 55/100/4 58/106/4 84/172/4
f 63/117/2 66/124/2 86/179/2
f 60/111/1 57/105/1 77/152/1
f 82/167/2 53/96/2 50/89/2
f 73/140/1 51/91/1 54/98/1
f 47/81/6 48/84/6 46/79/6
f 64/119/3 61/113/3 74/142/3
f 49/87/4 52/94/4 54/98/4
f 8/20/6 4/12/6 67/126/6
f 4/12/6 69/130/6 67/126/6
f 67/126/6 79/158/6 77/153/6
f 57/104/6 56/103/6 8/20/6
f 67/126/6 77/153/6 57/104/6
f 67/127/3 70/132/3 80/160/3
f 50/89/3 53/96/3 52/94/3
f 84/173/5 58/107/5 53/97/5
f 57/105/2 60/111/2 59/108/2
f 56/102/3 59/108/3 58/106/3
f 69/130/6 4/12/6 68/128/6
f 4/12/6 2/6/6 68/128/6
f 2/6/6 62/116/6 63/118/6
f 63/118/6 85/177/6 87/182/6
f 63/118/6 87/182/6 68/128/6
f 61/113/4 64/119/4 65/122/4
f 62/115/1 65/122/1 66/124/1
f 62/116/6 2/6/6 61/114/6
f 2/6/6 6/16/6 61/114/6
f 6/16/6 49/88/6 51/92/6
f 51/92/6 73/141/6 74/143/6
f 51/92/6 74/143/6 61/114/6
f 88/184/4 71/134/4 68/129/4
f 68/129/1 71/134/1 72/136/1
f 69/131/2 72/136/2 70/132/2
f 6/16/6 8/20/6 55/101/6
f 8/20/6 56/103/6 55/101/6
f 55/101/6 83/170/6 81/165/6
f 50/90/6 49/88/6 6/16/6
f 55/101/6 81/165/6 50/90/6
f 75/147/4 76/150/4 74/144/4
f 79/159/2 80/161/2 78/156/2
f 83/171/3 84/174/3 82/168/3
f 86/180/1 88/185/1 87/183/1
f 66/125/5 71/135/5 88/186/5
f 80/162/5 70/133/5 60/112/5
f 59/109/3 45/77/3 58/107/3
f 45/77/3 46/79/3 58/107/3
f 46/79/3 52/95/3 53/97/3
f 72/137/2 47/82/2 70/133/2
f 47/82/2 45/78/2 70/133/2
f 45/78/2 59/110/2 60/112/2
f 48/85/1 47/83/1 71/135/1
f 47/83/1 72/138/1 71/135/1
f 71/135/1 66/125/1 48/85/1
f 46/80/4 48/86/4 64/120/4
f 48/86/4 65/123/4 64/120/4
f 64/120/4 54/99/4 46/80/4
f 89/187/6 91/193/6 92/194/6
f 90/190/1 92/195/1 42/72/1
f 92/196/2 91/192/2 44/76/2
f 91/193/3 89/187/3 43/74/3
f 89/188/4 90/191/4 41/70/4
f 96/204/3 99/209/3 100/211/3
f 93/198/1 97/205/1 98/207/1
f 95/202/4 100/212/4 97/206/4
f 94/200/2 98/208/2 99/210/2
